<?xml version="1.0" standalone="no"?>
<!DOCTYPE svg PUBLIC "-//W3C//DTD SVG 20010904//EN"
 "http://www.w3.org/TR/2001/REC-SVG-20010904/DTD/svg10.dtd">
<svg version="1.0" xmlns="http://www.w3.org/2000/svg"
 width="192.000000pt" height="192.000000pt" viewBox="0 0 192.000000 192.000000"
 preserveAspectRatio="xMidYMid meet">
<metadata>
Created by potrace 1.14, written by Peter Selinger 2001-2017
</metadata>
<g transform="translate(0.000000,192.000000) scale(0.100000,-0.100000)"
fill="#000000" stroke="none">
<path d="M220 1630 c0 -14 -7 -20 -22 -21 -47 -3 -53 -4 -51 -16 3 -12 -9 -17
-29 -14 -5 0 -8 -8 -8 -18 0 -11 -8 -22 -18 -25 -10 -4 -19 -17 -20 -33 -1
-16 -10 -35 -20 -43 -12 -9 -18 -25 -16 -42 2 -22 -1 -28 -17 -28 -18 0 -19
-8 -19 -160 0 -149 1 -160 19 -160 13 0 18 -7 17 -22 -3 -29 12 -60 24 -53 5
3 10 -12 12 -32 2 -26 8 -38 18 -38 8 0 16 -10 18 -23 2 -12 7 -20 12 -17 5 3
15 -3 22 -15 7 -11 18 -20 25 -20 7 0 13 -9 13 -20 0 -13 7 -20 20 -20 11 0
20 -7 20 -15 0 -8 7 -15 15 -15 14 0 19 -12 16 -32 0 -5 7 -8 18 -8 10 0 21
-9 24 -20 3 -14 10 -18 21 -14 9 4 16 3 15 -2 -7 -38 -2 -39 144 -39 87 0 142
4 142 10 1 23 19 37 42 32 18 -3 27 0 30 13 3 11 15 17 38 18 26 1 34 -3 38
-20 4 -14 11 -19 21 -15 12 5 16 0 16 -18 0 -17 4 -23 14 -19 8 3 16 -4 19
-17 4 -14 11 -20 21 -16 12 5 16 0 16 -18 0 -18 5 -25 20 -25 11 0 20 -7 20
-15 0 -8 7 -15 15 -15 8 0 15 -9 15 -20 0 -13 7 -20 20 -20 11 0 20 -6 20 -14
0 -7 9 -16 20 -19 13 -3 18 -10 14 -21 -4 -12 0 -16 15 -16 14 0 21 -6 21 -19
0 -12 7 -18 17 -17 12 1 19 -7 21 -22 2 -16 8 -22 18 -18 8 3 14 -1 14 -9 0
-17 31 -28 54 -19 9 3 17 1 17 -5 1 -6 2 -17 3 -23 1 -8 18 -14 46 -14 68 -2
70 -3 64 -19 -5 -13 6 -15 69 -15 64 0 75 3 79 18 4 14 13 18 37 16 26 -2 31
2 31 19 0 18 6 22 32 21 22 -1 35 4 39 15 3 9 12 16 20 16 8 0 15 10 17 23 2
12 7 20 12 17 5 -3 15 3 22 15 7 11 18 20 25 20 7 0 13 9 13 20 0 13 7 20 20
20 11 0 20 6 20 14 0 7 10 16 21 19 15 4 20 11 16 21 -5 11 0 16 13 16 15 0
19 8 22 38 2 25 8 37 18 37 10 0 16 12 18 38 2 29 7 37 18 33 14 -5 16 3 17
72 0 24 4 32 18 32 18 0 19 12 19 184 0 174 -1 185 -18 181 -17 -3 -19 3 -18
53 1 32 -4 57 -9 57 -22 0 -31 16 -27 45 4 25 1 30 -17 30 -17 0 -21 6 -21 34
0 25 -5 35 -19 39 -13 3 -18 12 -16 32 3 20 -2 29 -15 32 -10 3 -20 14 -23 24
-3 11 -11 18 -18 17 -8 -2 -15 7 -17 19 -2 15 -10 22 -25 21 -39 -1 -47 2 -47
18 0 10 -8 15 -22 14 -39 -3 -45 -1 -51 20 -5 18 -14 20 -76 20 -64 0 -71 -2
-71 -20 0 -19 -15 -25 -48 -21 -8 1 -16 -6 -19 -17 -3 -15 -12 -18 -38 -16
-28 2 -34 -2 -37 -19 -2 -16 -10 -21 -33 -22 -17 0 -33 -7 -36 -15 -3 -8 -12
-15 -20 -15 -8 0 -15 -10 -17 -22 -2 -14 -8 -20 -17 -17 -7 3 -16 -3 -19 -14
-4 -11 -16 -22 -26 -25 -13 -3 -18 -11 -14 -21 4 -12 0 -16 -15 -16 -12 0 -21
-6 -21 -14 0 -7 -9 -16 -20 -19 -11 -3 -19 -9 -18 -14 4 -10 -33 -47 -55 -56
-9 -3 -17 -15 -17 -26 0 -12 -6 -18 -17 -17 -10 0 -17 -5 -15 -12 1 -8 -7 -16
-18 -19 -12 -3 -20 -14 -20 -25 0 -14 -5 -18 -14 -15 -9 4 -17 -2 -21 -14 -7
-22 -35 -26 -35 -5 0 7 -9 16 -20 19 -12 3 -20 14 -20 26 0 13 -5 19 -14 15
-9 -3 -17 3 -21 15 -3 11 -11 20 -18 18 -6 -1 -13 8 -15 21 -2 16 -8 22 -19
18 -9 -4 -17 1 -20 14 -3 11 -9 17 -14 15 -10 -7 -31 30 -22 39 3 3 -3 6 -15
6 -13 0 -22 6 -22 15 0 8 -9 15 -20 15 -11 0 -19 3 -19 8 3 20 -2 32 -16 32
-8 0 -15 7 -15 15 0 8 -9 15 -19 15 -13 0 -21 8 -23 23 -2 12 -10 22 -18 22
-8 1 -14 6 -13 13 2 7 -4 12 -12 12 -9 0 -20 12 -25 26 -6 14 -15 22 -21 19
-6 -4 -13 2 -16 13 -4 17 -12 20 -39 18 -30 -2 -34 1 -34 21 0 20 -5 23 -35
23 -28 0 -35 -4 -35 -20z m1223 -419 c4 -1 7 -10 7 -22 0 -14 5 -19 14 -16 9
4 17 -2 21 -14 4 -10 12 -19 20 -19 9 0 14 -18 17 -57 4 -76 -5 -209 -14 -205
-20 6 -25 0 -23 -29 2 -24 -2 -33 -16 -36 -11 -3 -19 -12 -19 -19 0 -8 -9 -14
-20 -14 -11 0 -19 -3 -19 -7 3 -21 -2 -33 -16 -33 -8 0 -15 -7 -15 -15 0 -16
-7 -17 -85 -17 -66 0 -65 0 -65 17 0 8 -9 15 -19 15 -14 0 -19 6 -16 20 3 14
-2 20 -16 20 -10 0 -19 7 -19 15 0 8 -6 15 -14 15 -8 0 -18 9 -21 20 -3 11
-12 20 -20 20 -8 0 -16 9 -20 20 -3 11 -12 19 -18 17 -7 -1 -12 7 -12 18 0 11
6 19 13 17 8 -1 16 7 19 18 3 11 9 17 14 14 5 -3 14 7 19 21 6 15 15 23 21 20
6 -4 13 2 16 14 3 12 13 21 25 21 14 0 18 5 14 16 -4 11 1 18 14 21 11 3 20
12 20 19 0 8 9 14 20 14 13 0 20 7 20 20 0 13 7 20 20 20 13 0 18 5 14 15 -4
10 0 15 15 15 14 0 21 6 21 18 0 10 2 21 4 23 4 4 65 3 99 0z"/>
</g>
</svg>
