<?xml version="1.0" standalone="no"?>
<!DOCTYPE svg PUBLIC "-//W3C//DTD SVG 20010904//EN"
 "http://www.w3.org/TR/2001/REC-SVG-20010904/DTD/svg10.dtd">
<svg version="1.0" xmlns="http://www.w3.org/2000/svg"
 width="192.000000pt" height="192.000000pt" viewBox="0 0 192.000000 192.000000"
 preserveAspectRatio="xMidYMid meet">
<metadata>
Created by potrace 1.14, written by Peter Selinger 2001-2017
</metadata>
<g transform="translate(0.000000,192.000000) scale(0.100000,-0.100000)"
fill="#000000" stroke="none">
<path d="M210 1635 c0 -10 -11 -15 -35 -15 -28 0 -35 -4 -35 -20 0 -13 -7 -20
-20 -20 -13 0 -20 -7 -20 -20 0 -11 -7 -20 -15 -20 -10 0 -15 -11 -15 -35 0
-28 -4 -35 -20 -35 -16 0 -20 -7 -20 -35 0 -24 -5 -35 -15 -35 -13 0 -15 -29
-15 -200 0 -171 2 -200 15 -200 8 0 15 -9 15 -20 0 -13 7 -20 20 -20 13 0 20
-7 20 -20 0 -11 7 -20 15 -20 9 0 15 -9 15 -25 0 -18 5 -25 20 -25 11 0 20 -4
20 -10 0 -5 9 -10 20 -10 15 0 20 -7 20 -25 0 -16 6 -25 15 -25 8 0 15 -7 15
-15 0 -8 9 -15 20 -15 13 0 20 -7 20 -20 0 -13 7 -20 20 -20 11 0 20 -7 20
-15 0 -8 7 -15 15 -15 8 0 15 -9 15 -20 0 -11 7 -20 15 -20 8 0 15 -9 15 -20
0 -19 7 -20 120 -20 113 0 120 1 120 20 0 11 7 20 15 20 8 0 15 9 15 20 0 16
7 20 35 20 24 0 35 5 35 15 0 10 11 15 35 15 24 0 35 -5 35 -15 0 -8 7 -15 15
-15 8 0 15 -9 15 -20 0 -13 7 -20 20 -20 11 0 20 -7 20 -15 0 -8 7 -15 15 -15
9 0 15 -9 15 -21 0 -12 8 -23 20 -26 11 -3 20 -9 20 -14 0 -5 9 -9 20 -9 15 0
20 -7 20 -25 0 -16 6 -25 15 -25 8 0 15 -7 15 -15 0 -8 9 -15 20 -15 13 0 20
-7 20 -20 0 -13 7 -20 20 -20 11 0 20 -7 20 -15 0 -8 7 -15 15 -15 8 0 15 -9
15 -20 0 -13 7 -20 20 -20 11 0 20 -7 20 -15 0 -10 11 -15 35 -15 31 0 35 -3
35 -25 0 -24 3 -25 55 -25 30 0 55 -4 55 -10 0 -6 32 -10 75 -10 43 0 75 4 75
10 0 6 18 10 40 10 36 0 40 3 40 25 0 22 4 25 35 25 24 0 35 5 35 15 0 8 7 15
15 15 8 0 15 9 15 20 0 13 7 20 20 20 11 0 20 7 20 15 0 8 9 15 20 15 13 0 20
7 20 20 0 11 7 20 15 20 8 0 15 7 15 15 0 8 9 15 20 15 15 0 20 7 20 25 0 18
5 25 20 25 16 0 20 7 20 35 0 24 5 35 15 35 10 0 15 11 15 35 0 28 4 35 20 35
17 0 20 7 20 50 0 38 4 50 15 50 13 0 15 28 15 190 0 162 -2 190 -15 190 -12
0 -15 13 -15 55 0 48 -2 55 -20 55 -16 0 -20 7 -20 35 0 24 -5 35 -15 35 -11
0 -15 11 -15 40 0 33 -3 40 -20 40 -16 0 -20 7 -20 35 0 28 -4 35 -20 35 -11
0 -20 7 -20 15 0 8 -7 15 -15 15 -8 0 -15 9 -15 20 0 17 -7 20 -40 20 -33 0
-40 3 -40 20 0 16 -7 20 -35 20 -24 0 -35 5 -35 15 0 12 -15 15 -75 15 -60 0
-75 -3 -75 -15 0 -10 -11 -15 -35 -15 -28 0 -35 -4 -35 -20 0 -17 -7 -20 -40
-20 -33 0 -40 -3 -40 -20 0 -16 -7 -20 -35 -20 -24 0 -35 -5 -35 -15 0 -8 -9
-15 -20 -15 -13 0 -20 -7 -20 -20 0 -11 -7 -20 -15 -20 -8 0 -15 -7 -15 -15 0
-8 -9 -15 -20 -15 -13 0 -20 -7 -20 -20 0 -11 -7 -20 -15 -20 -8 0 -15 -9 -15
-20 0 -13 -7 -20 -20 -20 -11 0 -20 -7 -20 -15 0 -8 -9 -15 -20 -15 -13 0 -20
-7 -20 -20 0 -11 -7 -20 -15 -20 -8 0 -15 -9 -15 -20 0 -13 -7 -20 -20 -20
-11 0 -20 -7 -20 -15 0 -8 -9 -15 -20 -15 -13 0 -20 -7 -20 -20 0 -11 -7 -20
-15 -20 -8 0 -15 -7 -15 -15 0 -8 -7 -15 -15 -15 -8 0 -15 7 -15 15 0 8 -7 15
-15 15 -8 0 -15 9 -15 20 0 13 -7 20 -20 20 -11 0 -20 7 -20 15 0 8 -9 15 -20
15 -13 0 -20 7 -20 20 0 11 -7 20 -15 20 -8 0 -15 9 -15 20 0 13 -7 20 -20 20
-11 0 -20 7 -20 15 0 8 -9 15 -20 15 -13 0 -20 7 -20 20 0 11 -7 20 -15 20 -8
0 -15 9 -15 20 0 13 -7 20 -20 20 -11 0 -20 7 -20 15 0 8 -7 15 -15 15 -8 0
-15 9 -15 20 0 13 -7 20 -20 20 -11 0 -20 7 -20 15 0 8 -9 15 -20 15 -13 0
-20 7 -20 20 0 11 -7 20 -15 20 -8 0 -15 9 -15 20 0 17 -7 20 -40 20 -29 0
-40 4 -40 15 0 11 -11 15 -40 15 -29 0 -40 -4 -40 -15z m50 -375 c0 -16 7 -20
35 -20 32 0 35 -2 35 -30 0 -23 4 -30 20 -30 13 0 20 -7 20 -20 0 -16 7 -20
30 -20 23 0 30 -4 30 -20 0 -13 7 -20 20 -20 11 0 20 -7 20 -15 0 -8 9 -15 20
-15 13 0 20 -7 20 -20 0 -11 7 -20 15 -20 8 0 15 -7 15 -15 0 -8 9 -15 20 -15
13 0 20 -7 20 -20 0 -13 -7 -20 -20 -20 -13 0 -20 -7 -20 -20 0 -11 -7 -20
-15 -20 -8 0 -15 -4 -15 -10 0 -5 -7 -10 -15 -10 -8 0 -15 -9 -15 -20 0 -13
-7 -20 -20 -20 -13 0 -20 7 -20 20 0 15 -7 20 -25 20 -20 0 -25 5 -25 25 0 21
-5 25 -30 25 -25 0 -30 4 -30 25 0 18 -5 25 -20 25 -13 0 -20 7 -20 20 0 11
-7 20 -15 20 -8 0 -15 7 -15 15 0 8 -7 15 -15 15 -8 0 -15 9 -15 20 0 15 -7
20 -25 20 -16 0 -25 6 -25 15 0 8 -9 15 -20 15 -11 0 -20 7 -20 15 0 9 -9 15
-25 15 -18 0 -25 5 -25 20 0 15 7 20 25 20 16 0 25 6 25 15 0 11 11 15 40 15
33 0 40 3 40 20 0 13 7 20 20 20 13 0 20 -7 20 -20z m1180 -75 c0 -18 5 -25
20 -25 11 0 20 -4 20 -10 0 -5 9 -10 20 -10 19 0 20 -7 20 -125 0 -118 -1
-125 -20 -125 -16 0 -20 -7 -20 -35 0 -28 -4 -35 -20 -35 -13 0 -20 -7 -20
-20 0 -11 -7 -20 -15 -20 -8 0 -15 -7 -15 -15 0 -8 -9 -15 -20 -15 -13 0 -20
-7 -20 -20 0 -18 -7 -20 -65 -20 -58 0 -65 2 -65 20 0 13 -7 20 -20 20 -11 0
-20 7 -20 15 0 8 -9 15 -20 15 -13 0 -20 7 -20 20 0 11 -7 20 -15 20 -8 0 -15
9 -15 20 0 13 -7 20 -20 20 -11 0 -20 7 -20 15 0 8 -7 15 -15 15 -8 0 -15 7
-15 15 0 8 7 15 15 15 8 0 15 7 15 15 0 8 9 15 20 15 13 0 20 7 20 20 0 11 7
20 15 20 8 0 15 7 15 15 0 8 9 15 20 15 13 0 20 7 20 20 0 13 7 20 20 20 11 0
20 7 20 15 0 8 7 15 15 15 9 0 15 9 15 25 0 18 5 25 20 25 11 0 20 5 20 10 0
6 7 10 15 10 9 0 15 9 15 25 0 23 3 25 50 25 47 0 50 -2 50 -25z"/>
</g>
</svg>
